<?xml version="1.0" standalone="no"?>
<!DOCTYPE svg PUBLIC "-//W3C//DTD SVG 20010904//EN"
 "http://www.w3.org/TR/2001/REC-SVG-20010904/DTD/svg10.dtd">
<svg version="1.0" xmlns="http://www.w3.org/2000/svg"
 width="300.000000pt" height="300.000000pt" viewBox="0 0 300.000000 300.000000"
 preserveAspectRatio="xMidYMid meet">
<metadata>
Created by potrace 1.14, written by Peter Selinger 2001-2017
</metadata>
<g transform="translate(0.000000,300.000000) scale(0.100000,-0.100000)"
fill="#000000" stroke="none">
<path d="M1335 2883 c-293 -36 -568 -166 -783 -368 -405 -382 -543 -985 -342
-1495 11 -28 18 -50 15 -50 -2 0 -27 13 -55 30 -28 16 -54 30 -58 30 -12 -1
30 -30 79 -55 37 -19 52 -36 79 -87 18 -35 46 -82 61 -106 16 -24 29 -45 29
-47 0 -4 -40 7 -107 29 -14 4 -23 3 -23 -3 0 -5 34 -19 75 -32 76 -22 82 -27
159 -128 9 -12 -8 -13 -112 -9 -68 3 -118 2 -111 -3 7 -4 54 -20 105 -35 52
-16 89 -31 82 -35 -19 -12 2 -29 35 -29 49 -1 17 -14 -111 -45 -62 -15 -111
-29 -109 -32 3 -2 107 -9 232 -14 203 -9 230 -13 263 -32 l36 -21 -29 -8 c-17
-4 -47 -10 -67 -13 -21 -3 -38 -10 -38 -15 0 -13 16 -12 99 1 66 11 68 11 136
-23 39 -19 92 -43 118 -53 26 -10 44 -21 40 -25 -4 -4 -30 -15 -58 -25 -56
-21 -71 -30 -58 -38 5 -3 45 7 89 22 43 15 87 27 96 25 32 -4 173 -36 191 -43
14 -5 5 -14 -44 -46 -86 -55 -50 -60 40 -6 37 23 73 41 81 41 7 0 41 -27 76
-60 34 -33 66 -60 71 -60 5 0 36 27 69 60 32 32 64 59 69 60 6 0 38 -18 73
-40 34 -22 71 -40 82 -40 12 0 35 24 64 69 26 38 52 71 59 74 6 2 46 -9 87
-24 41 -16 81 -28 89 -27 8 2 29 39 46 83 35 91 29 88 162 71 l62 -8 7 29 c3
15 8 35 10 44 6 22 46 29 178 30 61 0 131 4 156 8 44 7 43 7 -87 40 -73 18
-133 37 -133 41 0 4 21 10 47 13 27 3 52 12 59 21 6 9 40 26 75 38 92 30 92
37 0 31 l-81 -6 0 56 0 56 73 22 c86 26 109 37 102 49 -3 5 -37 -2 -75 -15
-39 -13 -70 -22 -70 -20 0 3 29 55 65 117 63 111 66 114 135 151 38 21 70 44
70 52 0 9 -21 2 -66 -22 -38 -20 -65 -29 -62 -22 3 8 16 48 28 89 36 116 45
133 105 181 31 24 55 52 55 62 0 15 -11 9 -52 -27 -48 -42 -77 -59 -64 -37 3
5 11 64 16 132 10 105 15 128 33 149 39 44 68 91 64 103 -2 6 -21 -12 -43 -40
-21 -29 -42 -52 -46 -52 -5 -1 -8 18 -8 42 0 23 -5 76 -11 117 -12 75 -12 76
20 138 18 35 30 71 28 80 -2 11 -14 -4 -32 -40 -16 -32 -32 -58 -36 -58 -3 0
-9 13 -12 30 -4 16 -22 71 -42 123 -32 88 -34 98 -25 148 6 30 13 62 16 72 3
9 1 17 -5 17 -5 0 -15 -25 -22 -57 -9 -38 -16 -52 -21 -42 -5 8 -35 57 -68
111 -60 96 -60 96 -54 156 4 39 3 62 -5 66 -8 5 -11 -11 -11 -54 l0 -62 -47
53 c-27 30 -72 77 -100 105 -29 28 -53 60 -53 70 0 14 -2 16 -9 6 -6 -11 -22
-4 -67 30 -235 177 -525 270 -829 266 -66 0 -133 -3 -150 -5z m155 -179 c0
-30 -4 -54 -10 -54 -6 0 -10 27 -10 61 0 37 4 58 10 54 6 -3 10 -31 10 -61z
m118 13 c5 -41 -14 -67 -49 -67 -35 0 -55 34 -45 75 14 54 87 48 94 -8z m-258
33 c0 -5 -6 -10 -14 -10 -10 0 -12 -12 -8 -50 3 -33 1 -50 -7 -50 -6 0 -11 17
-11 41 0 32 -4 42 -20 46 -29 8 -25 21 8 26 49 7 52 7 52 -3z m86 -30 c1 -19
5 -43 9 -52 12 -28 -11 -21 -23 8 -13 28 -37 23 -29 -7 3 -11 2 -19 -3 -19
-12 0 -20 28 -20 71 0 39 1 40 33 37 29 -3 32 -6 33 -38z m247 30 c9 0 17 -4
17 -10 0 -5 -6 -10 -14 -10 -9 0 -16 -17 -20 -45 -4 -25 -12 -45 -17 -45 -6 0
-7 20 -3 50 6 42 4 50 -10 50 -9 0 -16 5 -16 11 0 7 9 9 23 5 12 -3 30 -6 40
-6z m-419 -54 c31 -53 35 -76 9 -54 -21 17 -53 13 -53 -8 0 -8 -5 -14 -11 -14
-6 0 -8 17 -4 48 12 89 21 93 59 28z m506 33 c0 -6 -7 -9 -15 -6 -24 10 -28
-13 -6 -34 24 -22 23 -21 15 -43 -7 -18 -64 -23 -64 -5 0 6 8 8 19 4 28 -8 34
9 11 30 -20 18 -26 46 -13 58 11 11 53 8 53 -4z m-586 -32 c9 -15 7 -22 -11
-37 -13 -10 -23 -28 -23 -39 0 -40 -17 -20 -28 31 -7 39 -7 55 1 61 19 12 49
4 61 -16z m696 -41 l0 -41 25 38 c43 63 63 46 38 -34 -10 -33 -18 -47 -21 -36
-2 10 1 32 7 50 l11 32 -25 -30 c-14 -16 -25 -33 -25 -37 0 -5 -7 -8 -15 -8
-11 0 -15 13 -16 53 l-1 52 -11 -42 c-7 -23 -16 -45 -21 -50 -11 -10 -2 51 13
91 9 23 14 26 26 16 9 -7 15 -29 15 -54z m-817 -28 c20 -59 5 -68 -42 -24 -24
22 -32 25 -27 13 3 -11 9 -31 12 -45 9 -37 -10 -16 -25 27 -22 68 -7 80 42 34
25 -23 29 -24 22 -8 -4 11 -10 31 -13 45 -7 40 13 11 31 -42z m991 1 c12 -18
13 -27 2 -53 -10 -26 -18 -31 -46 -31 -28 0 -36 5 -44 27 -21 58 53 106 88 57z
m-1074 -82 c0 -5 -7 -6 -16 -3 -27 10 -54 -3 -54 -27 0 -18 -2 -19 -10 -7 -11
17 -13 103 -3 114 7 7 83 -63 83 -77z m1124 15 l-6 -47 30 35 c17 19 34 31 38
27 8 -7 -63 -87 -78 -87 -10 0 -11 55 -2 99 10 48 24 26 18 -27z m-1254 19 c0
-5 -9 -11 -20 -14 -26 -7 -26 -39 0 -62 16 -15 22 -16 35 -5 21 18 30 6 10
-14 -21 -20 -39 -20 -59 0 -26 25 -31 62 -11 84 19 21 45 27 45 11z m1386 -52
c4 -7 0 -9 -14 -5 -28 9 -38 -12 -16 -30 18 -13 17 -14 -8 -8 -21 5 -28 2 -28
-9 0 -9 5 -19 10 -22 6 -3 10 -11 10 -16 0 -5 -11 -2 -25 7 l-25 16 26 49 c23
41 30 47 45 39 10 -6 21 -15 25 -21z m-1452 -41 c15 -25 23 -49 18 -52 -11 -7
-64 88 -55 98 3 3 7 5 8 4 1 -2 14 -24 29 -50z m-54 -3 c6 -8 9 -18 6 -23 -3
-5 6 -15 19 -22 31 -17 22 -33 -10 -18 -28 13 -45 4 -27 -14 14 -14 16 -28 3
-28 -4 0 -21 19 -36 42 l-28 42 23 18 c27 22 34 22 50 3z m1560 -3 c0 -9 -4
-32 -9 -50 l-10 -32 29 20 c30 21 60 26 60 10 0 -15 -51 -90 -61 -90 -14 0
-11 9 17 46 31 41 25 43 -22 8 -42 -33 -51 -18 -29 46 16 47 11 45 -29 -15 -8
-11 -17 -17 -21 -13 -9 9 45 88 61 88 8 0 14 -8 14 -18z m-1665 -62 c-16 -17
-16 -20 -2 -26 9 -3 21 -3 27 1 5 3 10 2 10 -4 0 -5 -5 -13 -11 -17 -7 -4 -8
-9 0 -17 7 -7 15 -6 26 3 17 14 31 8 20 -9 -3 -6 -14 -15 -24 -21 -15 -7 -24
-2 -51 31 -31 39 -31 41 -14 60 9 10 22 19 27 19 6 0 2 -9 -8 -20z m1805 -63
c0 -5 -7 -4 -15 3 -12 10 -19 10 -28 1 -9 -9 -9 -14 3 -21 8 -5 11 -12 7 -16
-3 -4 -13 -1 -21 5 -19 16 -32 -5 -15 -25 16 -19 4 -30 -16 -14 -23 19 -18 41
17 77 30 31 33 32 50 16 10 -9 18 -20 18 -26z m-1800 -61 c0 -6 -16 6 -36 25
l-35 34 21 -48 c12 -27 19 -51 16 -55 -4 -3 -22 2 -41 11 -50 24 -53 21 -20
-13 16 -16 25 -33 21 -37 -4 -5 -23 10 -41 32 -25 29 -31 43 -23 52 8 10 16 9
40 -3 38 -20 44 -14 23 26 -13 26 -14 34 -3 47 11 13 16 10 45 -23 18 -22 33
-43 33 -48z m1837 -5 c-3 -14 -9 -35 -13 -46 -7 -19 -5 -18 18 3 42 38 44 24
3 -18 -21 -22 -43 -36 -47 -32 -5 5 -2 28 7 52 8 24 14 45 12 47 -2 1 -14 -8
-27 -22 -13 -14 -28 -25 -34 -25 -5 0 7 18 29 40 41 42 60 43 52 1z m-1217
-21 c0 -5 -7 -7 -16 -3 -20 7 -45 -22 -37 -43 3 -8 14 -14 24 -14 21 0 26 16
7 23 -8 3 -6 6 5 6 21 1 23 -34 2 -43 -37 -14 -71 38 -45 69 14 17 60 21 60 5z
m140 -36 c0 -41 -2 -45 -22 -42 -32 4 -39 58 -9 58 12 0 21 7 21 15 0 8 2 15
5 15 3 0 5 -21 5 -46z m-320 2 c0 -19 -4 -38 -10 -41 -6 -4 -10 10 -10 34 0
23 5 41 10 41 6 0 10 -15 10 -34z m387 2 l10 -33 8 28 c10 36 22 34 33 -5 l9
-33 7 33 c4 17 12 32 18 32 6 0 7 -7 4 -16 -3 -9 -9 -27 -12 -40 -8 -30 -26
-26 -35 7 l-6 24 -12 -29 c-6 -16 -15 -26 -19 -22 -11 12 -31 86 -22 86 4 0
12 -15 17 -32z m-319 -11 c2 -15 -1 -27 -7 -27 -6 0 -11 9 -11 20 0 11 -4 20
-10 20 -5 0 -10 -11 -10 -25 0 -14 -4 -25 -10 -25 -18 0 -11 58 8 63 28 7 37
2 40 -26z m181 16 c11 -21 -3 -53 -24 -53 -8 0 -19 9 -25 21 -21 37 28 69 49
32z m379 -1 c-13 -2 -18 -14 -20 -40 l-1 -37 -4 38 c-2 20 -8 37 -14 37 -5 0
-9 4 -9 8 0 5 15 6 33 3 19 -3 25 -6 15 -9z m204 -10 c-15 -5 -16 -42 -1 -42
5 0 7 -5 3 -11 -8 -14 -20 -1 -28 32 -7 31 0 40 22 31 10 -4 12 -7 4 -10z
m-304 -4 c18 -18 15 -28 -9 -28 -11 0 -17 -5 -14 -10 4 -6 11 -8 16 -5 5 4 9
1 9 -5 0 -16 -31 -8 -43 12 -8 12 -7 21 2 32 16 19 23 20 39 4z m252 -8 c-9
-5 -9 -9 -1 -14 20 -13 12 -36 -11 -35 -17 1 -19 2 -5 6 21 6 22 19 1 27 -13
5 -14 9 -4 21 7 8 17 12 22 9 6 -4 6 -9 -2 -14z m720 -44 c0 -5 -7 -3 -15 4
-13 11 -20 9 -43 -13 -16 -15 -35 -27 -43 -27 -8 0 2 15 23 35 25 23 36 41 32
52 -3 11 5 5 20 -12 14 -16 26 -34 26 -39z m-2067 33 c40 -14 49 -29 18 -29
-18 0 -34 -25 -30 -46 5 -29 -5 -22 -32 20 -29 47 -32 83 -6 73 6 -2 29 -10
50 -18z m1229 9 c-5 -7 -12 -22 -15 -33 -3 -13 -5 -9 -6 13 -1 23 3 32 15 32
12 0 14 -3 6 -12z m38 -13 c0 -14 5 -25 10 -25 6 0 10 11 10 25 0 14 5 25 10
25 6 0 10 -14 10 -31 0 -27 -3 -30 -27 -27 -22 2 -29 9 -31 31 -2 15 1 27 7
27 6 0 11 -11 11 -25z m261 -66 c20 -38 39 -83 39 -94 0 -6 -13 -24 -30 -40
-16 -15 -29 -31 -28 -34 5 -46 -4 -60 -47 -74 -39 -14 -45 -14 -45 -1 0 8 -8
14 -17 13 -11 0 -13 -3 -5 -6 21 -8 13 -20 -30 -46 -24 -14 -65 -46 -93 -70
l-50 -45 23 -21 c30 -30 29 -83 -3 -125 -14 -18 -25 -44 -25 -58 0 -37 -26
-56 -52 -39 -18 11 -20 11 -15 -2 4 -11 -1 -17 -16 -20 -12 -2 7 -5 43 -6 37
0 71 -6 78 -13 18 -18 16 -162 -2 -177 -11 -9 -14 -47 -15 -168 -1 -85 -4
-159 -7 -164 -18 -30 -24 7 -24 156 0 158 -1 165 -20 165 -19 0 -20 -7 -20
-170 0 -144 -2 -170 -15 -170 -9 0 -15 9 -15 25 0 18 -5 25 -20 25 -15 0 -20
-7 -20 -26 0 -19 -4 -25 -17 -22 -11 2 -18 12 -17 26 0 15 -5 22 -18 22 -14 0
-18 -8 -18 -34 0 -38 -17 -57 -31 -35 -5 8 -9 26 -9 42 0 33 -27 37 -32 5 -5
-34 -38 -37 -38 -4 0 19 -5 26 -20 26 -15 0 -20 -7 -20 -25 0 -14 -6 -25 -14
-25 -20 0 -27 72 -19 215 6 123 6 125 -15 125 -22 0 -22 -3 -22 -166 0 -128
-3 -165 -12 -162 -10 4 -14 48 -16 165 -2 127 -6 164 -17 173 -19 16 -21 160
-3 178 7 7 35 12 64 12 58 0 68 13 65 82 -2 20 5 47 14 61 15 24 15 26 -4 36
-28 15 -28 15 -41 -24 -16 -49 -46 -47 -88 7 -38 49 -39 62 -10 82 21 15 21
16 2 37 -36 41 -139 100 -212 122 -62 18 -74 25 -78 47 -3 14 -24 42 -47 62
l-41 37 19 56 c24 70 36 81 60 55 14 -16 16 -23 7 -32 -19 -19 -15 -26 32 -46
51 -23 61 -37 57 -74 -2 -19 2 -28 12 -28 8 0 51 -18 95 -40 88 -44 182 -122
182 -150 0 -10 -16 -32 -36 -50 l-36 -31 22 -24 23 -24 19 39 c16 33 27 42 61
50 23 6 50 15 59 20 24 13 139 -14 155 -37 7 -9 13 -38 13 -65 0 -37 4 -50 20
-58 11 -6 20 -18 20 -28 1 -9 7 0 15 22 7 21 27 53 44 70 39 40 39 46 -1 46
-33 0 -88 41 -88 66 0 23 148 150 214 184 59 30 67 36 61 57 -4 18 2 27 33 46
54 35 68 53 52 72 -14 17 -6 49 12 43 6 -2 15 -11 19 -19z m-521 -129 c0 -29
2 -30 45 -30 33 0 45 -4 45 -15 0 -11 -12 -15 -45 -15 l-45 0 0 -80 c0 -64 -3
-80 -15 -80 -12 0 -15 16 -15 80 l0 80 -45 0 c-33 0 -45 4 -45 15 0 11 12 15
45 15 43 0 45 1 45 30 0 20 5 30 15 30 10 0 15 -10 15 -30z m988 -97 c2 -15 8
-20 18 -16 13 5 13 8 2 15 -10 8 -10 9 2 5 8 -2 17 -14 18 -27 3 -20 0 -22
-20 -17 -12 4 -31 7 -40 7 -13 0 -18 8 -18 31 0 24 4 30 18 27 9 -2 18 -13 20
-25z m-1758 -33 c-1 -11 -4 -10 -12 5 -11 19 -11 19 -19 0 -6 -16 -8 -13 -8
12 -1 32 0 32 19 16 11 -10 20 -24 20 -33z m1628 25 c15 -32 15 -32 -2 -32 -8
0 -16 13 -18 29 -6 35 5 36 20 3z m-1813 5 c5 -8 11 -7 21 1 12 10 17 9 27 -1
10 -10 9 -12 -5 -7 -20 7 -25 -8 -5 -17 6 -3 0 -4 -15 -1 -15 3 -30 1 -33 -5
-12 -20 -35 -10 -35 15 0 18 5 25 19 25 11 0 23 -5 26 -10z m95 -10 c0 -11 -7
-20 -15 -20 -8 0 -15 5 -15 11 0 5 5 7 10 4 6 -3 10 -2 10 4 0 5 -6 12 -12 14
-8 3 -6 6 5 6 11 1 17 -6 17 -19z m30 -2 c0 -19 -2 -20 -10 -8 -13 19 -13 30
0 30 6 0 10 -10 10 -22z m1612 -18 c-5 -33 -6 -33 -12 -10 -4 14 -2 31 3 38
14 18 15 12 9 -28z m134 28 c5 -8 2 -9 -9 -5 -11 4 -17 1 -17 -9 0 -9 5 -12
12 -8 7 4 8 3 4 -5 -9 -13 -22 -7 -35 17 -8 14 -5 18 14 20 13 1 27 -4 31 -10z
m-88 -20 c2 -9 -5 -18 -14 -22 -22 -8 -30 0 -16 17 7 8 8 17 4 22 -4 4 0 6 8
3 8 -3 16 -12 18 -20z m242 12 c0 -5 -5 -10 -11 -10 -8 0 -8 -5 1 -15 8 -9 9
-15 2 -15 -15 0 -25 18 -18 35 6 17 26 20 26 5z m30 -20 c5 0 7 -7 4 -15 -11
-27 -24 -16 -23 18 1 17 3 24 6 15 2 -10 8 -18 13 -18z m-1998 -65 c-2 -14 -8
-25 -12 -25 -4 0 -10 11 -12 25 -4 19 -1 25 12 25 13 0 16 -6 12 -25z m49 -1
c10 -13 10 -17 -1 -24 -26 -16 -54 12 -33 33 10 11 19 8 34 -9z m1764 -14 c0
-18 -6 -26 -23 -28 -27 -4 -40 22 -22 44 19 22 45 13 45 -16z m-1282 -49 c20
-19 37 -40 37 -47 0 -6 9 -23 20 -37 22 -27 28 -81 8 -75 -6 2 -16 18 -22 36
-6 17 -30 51 -53 75 -22 24 -48 61 -57 82 l-16 38 22 -18 c13 -11 40 -35 61
-54z m799 47 c-7 -7 -12 -19 -12 -28 0 -9 -10 -26 -22 -38 -51 -48 -67 -69
-82 -105 -9 -21 -20 -36 -26 -32 -16 10 -12 40 9 66 10 13 21 34 25 46 7 23
93 103 111 103 5 0 4 -5 -3 -12z m518 -18 c5 0 11 8 13 18 4 13 5 11 6 -5 1
-17 -5 -23 -19 -23 -14 0 -20 6 -19 23 1 16 2 18 6 5 2 -10 8 -18 13 -18z m54
22 c-6 -4 -14 -14 -17 -22 -4 -10 -6 -8 -6 8 -1 15 5 22 17 22 10 0 13 -3 6
-8z m-1974 -87 c13 8 13 -1 -1 -27 -11 -21 -12 -21 -24 8 l-13 29 -1 -27 c-1
-34 -21 -37 -21 -4 0 27 18 39 37 24 7 -5 17 -7 23 -3z m44 7 c-6 -4 -14 -14
-17 -22 -4 -10 -6 -8 -6 8 -1 15 5 22 17 22 10 0 13 -3 6 -8z m46 -12 c0 -13
-7 -20 -20 -20 -22 0 -23 1 -14 24 9 23 34 20 34 -4z m49 -2 c-1 -17 -2 -19
-6 -5 -2 9 -8 17 -13 17 -5 0 -11 -8 -13 -17 -4 -14 -5 -12 -6 5 -1 16 5 22
19 22 14 0 20 -6 19 -22z m69 -4 c22 -15 30 -44 12 -44 -5 0 -10 7 -10 15 0 9
-6 12 -15 9 -10 -4 -15 0 -16 12 0 11 -3 14 -6 7 -7 -18 -23 -16 -23 2 0 19
30 19 58 -1z m1580 -5 c-22 -12 -25 -51 -4 -43 8 3 16 14 19 25 5 20 32 26 42
9 8 -13 -13 -41 -29 -39 -6 1 -19 -1 -30 -6 -17 -7 -35 7 -36 27 0 11 31 38
43 38 7 0 4 -5 -5 -11z m162 -25 c0 -21 -20 -17 -21 4 0 14 -2 14 -9 -3 -8
-20 -9 -20 -9 1 -1 11 2 24 6 27 9 9 33 -12 33 -29z m24 3 c2 -30 -8 -24 -19
12 -5 17 -4 22 6 19 7 -2 13 -16 13 -31z m-95 6 c1 24 21 22 21 -3 0 -13 -7
-20 -20 -20 -14 0 -20 6 -19 23 0 21 1 21 9 2 7 -17 9 -17 9 -2z m135 11 c9
-3 16 -14 16 -23 0 -14 2 -14 10 -1 15 23 20 7 6 -19 l-13 -24 -7 27 c-7 30
-22 34 -29 9 -3 -11 -5 -7 -6 10 -1 29 0 30 23 21z m-2109 -102 c-3 -3 -11 0
-18 7 -9 10 -8 11 6 5 10 -3 15 -9 12 -12z m2130 8 c-3 -5 -11 -10 -16 -10 -6
0 -7 5 -4 10 3 6 11 10 16 10 6 0 7 -4 4 -10z m-2134 -52 c22 -6 39 -15 39
-20 0 -11 -33 -2 -70 18 -31 17 -19 18 31 2z m2149 -2 c-37 -20 -70 -29 -70
-18 0 5 15 14 33 20 46 14 66 14 37 -2z m-2022 -18 c-3 -7 -13 -15 -23 -16
-15 -4 -16 -2 -4 12 17 19 32 21 27 4z m605 -3 c4 -8 2 -17 -3 -20 -6 -4 -10
-4 -10 -1 0 2 -3 11 -6 20 -3 9 -2 16 4 16 5 0 12 -7 15 -15z m687 -6 c-7 -11
-14 -18 -17 -15 -8 8 5 36 17 36 7 0 7 -6 0 -21z m598 5 c14 -15 14 -16 -3
-13 -10 2 -20 10 -23 17 -5 17 6 15 26 -4z m-156 -139 c-4 -25 -13 -31 -25
-18 -6 5 19 43 28 43 1 0 0 -11 -3 -25z m68 -55 c-11 -20 -30 -28 -30 -12 0
11 22 32 32 32 5 0 4 -9 -2 -20z m-138 -15 c-2 -14 -11 -25 -18 -25 -18 0 -18
9 3 32 21 23 21 23 15 -7z m71 -25 c-3 -11 -12 -20 -19 -20 -17 0 -18 12 -2
28 18 18 27 15 21 -8z m-133 -44 c-5 -15 -15 -24 -20 -21 -6 4 -8 11 -5 16 4
5 -1 9 -9 9 -9 0 -16 5 -16 11 0 6 9 9 20 6 11 -3 23 -1 26 5 12 18 14 1 4
-26z m-1290 14 c0 -5 -9 -10 -21 -10 -11 0 -17 5 -14 10 3 6 13 10 21 10 8 0
14 -4 14 -10z m1504 -14 c-6 -15 -34 -23 -34 -10 0 8 34 34 38 30 1 -2 0 -11
-4 -20z m-143 -24 c-8 -26 -7 -30 7 -25 18 7 5 -12 -81 -127 l-49 -65 51 55
c29 30 70 79 92 108 44 57 57 63 37 16 -27 -59 -68 -112 -132 -169 -61 -53
-65 -59 -51 -75 18 -20 19 -36 3 -47 -7 -4 -13 -14 -13 -22 0 -7 -18 -23 -40
-35 -22 -11 -42 -22 -44 -23 -2 -1 -4 -36 -6 -78 -1 -43 -7 -81 -14 -88 -10
-9 -11 -7 -8 13 2 14 2 20 0 13 -7 -19 -31 -23 -43 -7 -7 8 -21 14 -31 14 -11
0 -19 5 -19 10 0 6 -4 10 -10 10 -11 0 -50 36 -50 47 0 4 12 20 28 36 15 17
20 26 12 22 -13 -8 -13 -7 -1 8 15 19 41 23 41 7 0 -5 5 -10 11 -10 5 0 8 4 4
9 -8 14 51 52 69 45 11 -4 16 -1 16 11 0 12 6 16 20 12 11 -3 23 -1 26 4 3 5
0 9 -5 9 -19 0 -12 18 10 23 27 7 20 29 -10 34 -15 2 -20 -1 -15 -9 6 -10 4
-11 -7 0 -18 16 -29 15 -29 -3 0 -8 5 -15 10 -15 25 0 7 -20 -22 -24 -70 -11
-128 -13 -128 -5 0 21 31 37 58 30 34 -9 64 -3 59 12 -12 35 35 61 61 35 9 -9
12 -9 12 -1 0 7 11 23 24 37 12 14 45 67 72 118 43 81 81 134 91 125 1 -2 -1
-17 -6 -35z m-111 -17 c0 -16 -6 -25 -15 -25 -18 0 -18 5 -5 31 14 26 20 24
20 -6z m220 -35 c-11 -20 -30 -28 -30 -12 0 11 22 32 32 32 5 0 4 -9 -2 -20z
m-42 -76 c-9 -9 -21 -13 -28 -9 -14 9 5 25 30 25 12 0 12 -3 -2 -16z m-1461
-46 c-3 -8 -6 -5 -6 6 -1 11 2 17 5 13 3 -3 4 -12 1 -19z m-77 -8 c0 -5 -5
-10 -11 -10 -5 0 -7 5 -4 10 3 6 8 10 11 10 2 0 4 -4 4 -10z m255 -84 c-1 -28
0 -28 47 -24 46 5 68 -4 68 -28 0 -7 -16 -10 -51 -6 -31 3 -60 0 -75 -8 -29
-16 -32 -34 -4 -25 29 9 15 -19 -16 -34 -21 -9 -30 -8 -55 10 -32 22 -35 29
-18 46 9 9 7 10 -10 6 -16 -4 -21 -1 -21 14 0 27 28 63 50 63 10 0 22 5 25 11
4 5 19 9 33 7 22 -2 27 -8 27 -32z m400 -95 c4 -12 12 -18 20 -14 8 3 17 -2
21 -10 3 -9 12 -13 19 -11 7 3 16 0 20 -6 5 -8 10 -8 20 0 8 7 19 9 25 5 6 -3
10 3 10 15 0 17 4 20 20 15 14 -5 20 -2 20 9 0 28 25 17 72 -31 71 -74 92
-131 44 -119 -23 6 -24 4 -19 -29 6 -38 2 -41 -28 -25 -17 10 -19 7 -19 -25 0
-36 -15 -46 -37 -24 -9 9 -14 5 -19 -15 -7 -30 -20 -33 -46 -9 -16 14 -18 15
-18 0 0 -24 -22 -32 -36 -13 -10 15 -16 16 -34 6 -24 -13 -39 -1 -40 28 0 8
-8 10 -25 6 -23 -6 -25 -3 -25 25 0 29 -2 31 -21 21 -28 -16 -34 -6 -22 33 10
33 10 33 -19 29 l-30 -5 26 50 c23 47 86 113 106 113 5 0 11 -9 15 -19z m440
-71 c-3 -5 -16 -15 -28 -21 -22 -12 -22 -12 -3 10 19 21 43 30 31 11z m735
-160 l0 -40 -40 0 -41 0 32 40 c18 22 36 40 41 40 4 0 8 -18 8 -40z m-2022
-37 c-16 -2 -40 -2 -55 0 -16 2 -3 4 27 4 30 0 43 -2 28 -4z m1905 0 c-13 -2
-35 -2 -50 0 -16 2 -5 4 22 4 28 0 40 -2 28 -4z m-1580 -10 c-45 -2 -122 -2
-170 0 -48 1 -11 3 82 3 94 0 133 -2 88 -3z m1375 0 c-49 -2 -127 -2 -175 0
-49 1 -9 3 87 3 96 0 136 -2 88 -3z m-1125 -10 c-18 -2 -48 -2 -65 0 -18 2 -4
4 32 4 36 0 50 -2 33 -4z m740 0 c-47 -3 -63 -8 -63 -18 0 -13 -46 -15 -317
-13 l-318 3 313 2 c268 3 312 5 312 18 0 12 14 15 68 13 l67 -2 -62 -3z m244
-29 c-3 -3 -12 -4 -19 -1 -8 3 -5 6 6 6 11 1 17 -2 13 -5z m-1141 -84 c13 0
14 -3 4 -15 -7 -8 -10 -22 -6 -30 6 -17 -9 -21 -19 -5 -4 7 -13 6 -26 -1 -18
-9 -20 -8 -17 8 2 10 -3 23 -12 30 -13 11 -13 12 2 13 10 0 23 10 29 22 l12
22 8 -22 c5 -12 16 -22 25 -22z m1086 0 c21 0 21 -1 3 -14 -11 -8 -16 -19 -12
-30 7 -17 -8 -22 -18 -6 -4 7 -13 6 -27 -1 -18 -10 -20 -9 -14 6 4 11 0 22
-11 31 -17 13 -17 13 3 14 14 0 24 8 28 23 l7 22 9 -22 c6 -14 18 -23 32 -23z
m-976 -1 c-10 -7 -14 -14 -9 -18 6 -3 2 -15 -10 -26 -18 -18 -19 -18 -14 -2 4
10 7 27 7 38 0 13 7 19 23 19 21 -1 21 -1 3 -11z m214 -20 c-12 -39 -15 -43
-35 -36 -22 9 -19 38 5 44 11 3 20 9 20 14 0 5 4 9 9 9 6 0 6 -12 1 -31z m204
4 c-4 -16 -11 -32 -16 -38 -9 -9 -1 39 9 58 9 16 13 5 7 -20z m244 20 c-19 -5
-25 -23 -8 -23 5 0 2 -9 -7 -20 -21 -25 -25 -21 -17 18 5 25 12 32 28 31 17
-1 17 -2 4 -6z m-521 -38 c-13 -10 -15 -14 -5 -18 8 -4 7 -6 -4 -6 -21 -1 -24
29 -6 47 8 8 15 9 23 1 7 -7 5 -14 -8 -24z m313 15 c-10 -6 -9 -9 1 -12 17 -6
2 -28 -19 -28 -14 0 -14 2 -3 9 7 5 10 14 7 20 -9 15 3 33 16 25 7 -4 6 -9 -2
-14z m135 10 c3 -5 1 -10 -6 -10 -6 0 -9 -8 -6 -20 3 -11 1 -20 -4 -20 -5 0
-9 14 -9 30 0 29 13 40 25 20z m212 -25 c-13 -10 -15 -14 -5 -18 8 -4 7 -6 -4
-6 -21 -1 -24 29 -6 47 8 8 15 9 23 1 7 -7 5 -14 -8 -24z m-753 17 c-6 -4 -14
-16 -17 -26 -10 -25 -18 -16 -10 12 3 12 13 22 22 22 10 0 12 -3 5 -8z m56 -3
c0 -6 -7 -9 -15 -5 -16 6 -16 -14 0 -26 6 -5 3 -8 -7 -8 -21 0 -30 13 -22 34
7 18 44 22 44 5z m170 -3 c0 -7 -7 -19 -15 -26 -19 -16 -41 1 -32 24 8 20 47
21 47 2z m86 -2 c-3 -9 -6 -21 -7 -27 -1 -7 -5 -1 -9 13 l-8 25 -8 -25 -8 -25
-7 25 -6 25 -11 -25 -11 -25 0 28 c-1 25 2 27 40 27 33 0 40 -3 35 -16z m160
0 c-3 -9 -6 -21 -7 -27 -1 -7 -4 -1 -9 13 l-7 25 -11 -25 -11 -25 0 28 c-1 23
3 27 25 27 20 0 25 -4 20 -16z m188 8 c-6 -4 -14 -16 -17 -26 -10 -25 -21 -13
-12 13 3 12 14 21 23 21 10 0 13 -3 6 -8z m56 -3 c0 -6 -7 -9 -15 -5 -16 6
-16 -14 0 -26 6 -5 3 -8 -7 -8 -21 0 -30 13 -22 34 7 18 44 22 44 5z m506 -71
c-3 -13 -6 -29 -6 -37 0 -13 -38 -12 -123 5 l-29 6 34 23 c23 17 47 24 82 25
45 0 48 -1 42 -22z m-1515 -20 c9 -17 45 -18 648 -18 631 0 639 0 665 21 14
11 31 19 38 17 20 -7 -185 -106 -294 -142 -256 -85 -543 -89 -813 -11 -89 26
-271 107 -310 139 -19 15 -18 16 18 14 25 -1 42 -8 48 -20z m1276 -105 c-13
-34 -26 -65 -29 -68 -9 -9 -138 34 -138 46 0 5 6 9 13 9 7 0 49 17 92 39 44
21 81 38 82 37 1 -1 -8 -29 -20 -63z m-257 -58 c0 -11 -65 -105 -76 -109 -12
-4 -128 64 -120 71 4 4 155 38 184 42 6 0 12 -1 12 -4z m-319 -95 c-29 -28
-56 -50 -60 -50 -4 0 -29 23 -56 50 l-49 50 109 0 110 0 -54 -50z"/>
<path d="M1542 2738 c-30 -30 1 -94 33 -68 25 20 13 80 -15 80 -3 0 -11 -5
-18 -12z"/>
<path d="M1390 2731 c0 -12 6 -21 16 -21 9 0 14 7 12 17 -5 25 -28 28 -28 4z"/>
<path d="M1227 2691 c-3 -14 0 -21 9 -21 16 0 18 9 5 28 -6 10 -10 9 -14 -7z"/>
<path d="M1137 2680 c3 -11 11 -19 17 -17 17 6 13 31 -6 35 -12 2 -15 -2 -11
-18z"/>
<path d="M1993 2614 c-18 -28 -9 -59 18 -59 21 0 40 45 28 67 -13 25 -26 23
-46 -8z"/>
<path d="M907 2576 c3 -16 10 -23 19 -19 10 4 11 9 1 24 -16 26 -25 24 -20 -5z"/>
<path d="M686 2472 c-2 -4 -1 -14 4 -22 7 -11 12 -12 21 -3 6 6 8 16 5 22 -8
13 -23 14 -30 3z"/>
<path d="M1352 2224 c4 -21 22 -23 26 -1 2 10 -3 17 -13 17 -10 0 -15 -6 -13
-16z"/>
<path d="M1284 2236 c-4 -10 -2 -22 4 -28 8 -8 13 -7 18 6 4 10 2 22 -4 28 -8
8 -13 7 -18 -6z"/>
<path d="M1570 2220 c0 -5 5 -10 10 -10 6 0 10 5 10 10 0 6 -4 10 -10 10 -5 0
-10 -4 -10 -10z"/>
<path d="M450 2203 c1 -15 27 -43 33 -36 12 11 8 22 -13 33 -11 6 -20 7 -20 3z"/>
<path d="M1090 1905 c-7 -9 -10 -18 -7 -21 3 -3 10 4 17 15 13 25 8 27 -10 6z"/>
<path d="M1860 1906 c0 -2 7 -9 15 -16 13 -11 14 -10 9 4 -5 14 -24 23 -24 12z"/>
<path d="M1106 1884 c-3 -8 -2 -12 4 -9 6 3 10 0 10 -7 0 -10 2 -10 9 1 7 11
11 10 20 -5 8 -14 11 -15 11 -4 0 10 7 7 20 -10 16 -20 19 -21 14 -5 -6 16 -5
18 7 8 19 -18 33 -16 15 2 -8 8 -25 16 -38 17 -13 2 -29 9 -36 16 -18 16 -29
15 -36 -4z"/>
<path d="M1840 1891 c0 -6 4 -13 10 -16 6 -3 7 1 4 9 -7 18 -14 21 -14 7z"/>
<path d="M1806 1865 c-10 -8 -22 -12 -26 -10 -4 3 -7 -7 -7 -21 0 -15 3 -21 7
-14 4 6 10 11 14 10 9 -1 30 23 34 38 3 15 2 15 -22 -3z"/>
<path d="M1215 1820 c-2 -3 10 -6 26 -6 16 -1 26 2 24 7 -6 8 -44 8 -50 -1z"/>
<path d="M1747 1799 c7 -7 15 -10 18 -7 3 3 -2 9 -12 12 -14 6 -15 5 -6 -5z"/>
<path d="M1480 1700 c0 -6 4 -9 9 -6 5 4 12 1 14 -4 3 -6 4 -5 3 2 -3 15 -26
23 -26 8z"/>
<path d="M1525 1480 c-3 -5 -1 -10 4 -10 6 0 11 5 11 10 0 6 -2 10 -4 10 -3 0
-8 -4 -11 -10z"/>
<path d="M1264 1447 c-3 -8 -4 -47 -2 -88 l3 -74 234 -3 c164 -2 238 1 247 9
18 15 19 140 2 157 -18 18 -477 17 -484 -1z m428 -47 c22 0 24 -18 3 -26 -11
-4 -13 -14 -8 -33 6 -24 5 -25 -11 -12 -15 12 -21 13 -38 2 -19 -12 -20 -11
-14 13 5 19 2 28 -9 32 -22 9 -18 24 6 24 13 0 23 8 27 22 l5 22 10 -22 c6
-12 18 -22 29 -22z m-312 15 c0 -10 10 -15 27 -15 25 0 26 -1 8 -20 -10 -11
-15 -28 -12 -40 6 -22 -3 -26 -21 -8 -9 9 -15 9 -24 0 -19 -19 -29 -14 -22 13
4 18 1 27 -10 31 -24 9 -19 24 9 24 16 0 25 6 25 15 0 8 5 15 10 15 6 0 10 -7
10 -15z m170 -15 c24 0 26 -15 4 -24 -12 -4 -14 -13 -10 -32 6 -23 5 -24 -15
-14 -15 9 -24 9 -32 1 -18 -18 -25 -13 -20 13 3 13 0 27 -6 30 -17 11 -13 26
8 26 10 0 22 8 26 18 6 16 7 16 16 0 6 -10 19 -18 29 -18z"/>
<path d="M1382 1193 c3 -65 6 -78 21 -81 15 -3 17 6 17 77 0 75 -2 81 -20 81
-19 0 -21 -5 -18 -77z"/>
<path d="M1460 1190 c0 -64 3 -80 15 -80 12 0 15 16 15 80 0 64 -3 80 -15 80
-12 0 -15 -16 -15 -80z"/>
<path d="M1530 1189 c0 -67 3 -80 16 -77 8 2 15 6 15 11 -1 4 -1 39 -1 77 0
56 -3 70 -15 70 -12 0 -15 -16 -15 -81z"/>
<path d="M1600 1190 c0 -73 2 -80 20 -80 18 0 20 7 20 80 0 73 -2 80 -20 80
-18 0 -20 -7 -20 -80z"/>
<path d="M1350 1045 l0 -56 153 3 152 3 3 53 3 52 -155 0 -156 0 0 -55z m99 4
c14 -41 14 -44 -4 -29 -12 10 -18 10 -30 0 -12 -10 -15 -9 -15 4 0 22 18 56
29 56 5 0 14 -14 20 -31z m66 20 c4 -5 -5 -21 -19 -34 l-26 -24 0 34 c0 28 4
35 19 35 11 0 23 -5 26 -11z m44 -11 l8 -23 7 23 c12 36 36 27 36 -13 0 -19
-4 -35 -10 -35 -5 0 -10 8 -10 18 -1 15 -2 15 -12 -2 -10 -18 -11 -18 -24 5
l-13 24 -1 -23 c0 -13 -4 -21 -8 -18 -11 7 -2 66 9 66 6 0 13 -10 18 -22z"/>
<path d="M1480 1060 c0 -5 5 -10 10 -10 6 0 10 5 10 10 0 6 -4 10 -10 10 -5 0
-10 -4 -10 -10z"/>
<path d="M520 1895 c0 -9 5 -15 11 -13 6 2 11 8 11 13 0 5 -5 11 -11 13 -6 2
-11 -4 -11 -13z"/>
<path d="M635 1811 c-3 -5 -1 -12 5 -16 5 -3 10 1 10 9 0 18 -6 21 -15 7z"/>
<path d="M2390 1801 c0 -12 6 -21 16 -21 9 0 14 7 12 17 -5 25 -28 28 -28 4z"/>
<path d="M2356 1681 c-4 -5 -2 -12 3 -15 5 -4 12 -2 15 3 4 5 2 12 -3 15 -5 4
-12 2 -15 -3z"/>
<path d="M925 951 c-11 -11 -3 -22 23 -32 15 -7 22 -13 15 -16 -25 -9 -13 -19
17 -15 35 5 51 22 21 22 -25 0 -28 15 -5 24 8 3 12 11 9 16 -5 8 -11 7 -21 -1
-8 -6 -14 -7 -14 -2 0 9 -37 13 -45 4z"/>
<path d="M1285 431 c-3 -5 -1 -12 4 -15 5 -3 11 1 15 9 6 16 -9 21 -19 6z"/>
<path d="M1347 433 c-10 -9 -9 -23 2 -23 5 0 11 7 15 15 5 15 -5 20 -17 8z"/>
<path d="M2371 2634 c0 -11 3 -14 6 -6 3 7 2 16 -1 19 -3 4 -6 -2 -5 -13z"/>
<path d="M70 1576 c0 -2 8 -10 18 -17 15 -13 16 -12 3 4 -13 16 -21 21 -21 13z"/>
<path d="M43 1333 c4 -6 26 -26 49 -45 23 -18 39 -28 35 -21 -4 6 -26 26 -49
45 -23 18 -39 28 -35 21z"/>
<path d="M2752 880 c0 -14 2 -19 5 -12 2 6 2 18 0 25 -3 6 -5 1 -5 -13z"/>
<path d="M2761 834 c0 -11 3 -14 6 -6 3 7 2 16 -1 19 -3 4 -6 -2 -5 -13z"/>
</g>
</svg>
